<mxfile host="app.diagrams.net" modified="2023-06-13T11:27:02.982Z" agent="Mozilla/5.0 (Macintosh; Intel Mac OS X 10_15_7) AppleWebKit/537.36 (KHTML, like Gecko) Chrome/114.0.0.0 Safari/537.36" version="21.3.8" etag="TPC8E2ajCZEIBGjOLof2" type="github">
  <diagram name="페이지-1" id="bHtBk64fiaqqDwYrocad">
    <mxGraphModel>
      <root>
        <mxCell id="0" />
        <mxCell id="1" parent="0" />
      </root>
    </mxGraphModel>
  </diagram>
</mxfile>
